<?xml version="1.0" encoding="utf-8"?>
<!-- Svg Vector Icons : http://www.onlinewebfonts.com/icon -->
<!DOCTYPE svg PUBLIC "-//W3C//DTD SVG 1.1//EN" "http://www.w3.org/Graphics/SVG/1.1/DTD/svg11.dtd">
<svg version="1.1" xmlns="http://www.w3.org/2000/svg" xmlns:xlink="http://www.w3.org/1999/xlink" x="0px" y="0px" viewBox="0 0 1000 1000" enable-background="new 0 0 1000 1000" xml:space="preserve">
<metadata> Svg Vector Icons : http://www.onlinewebfonts.com/icon </metadata>
<g><g transform="translate(0.000000,511.000000) scale(0.100000,-0.100000)"><path d="M394.1,4427.5c-106.7-37-200.4-119.8-248.3-220l-45.8-95.9l4.4-3060.7l6.5-3060.7l61-87.1c32.7-47.9,100.2-108.9,152.5-139.4l91.5-52.3l1923.6-6.5l1921.4-4.4v-52.3c0-106.7-91.5-403-187.3-599.1c-132.9-278.8-257.1-448.8-529.4-727.6c-222.2-226.6-230.9-239.6-230.9-331.1c0-76.3,13.1-108.9,61-156.9l58.8-61h1568.5H6570l58.8,61c47.9,47.9,61,80.6,61,156.9c0,91.5-8.7,104.6-230.9,331.1c-272.3,278.8-396.5,448.8-529.4,727.6c-95.8,196.1-187.3,492.3-187.3,599.1v52.3l1923.6,4.4c1751.5,6.5,1927.9,8.7,1988.9,43.6c100.2,54.5,202.6,169.9,228.7,257.1c13.1,50.1,19.6,1093.6,15.3,3119.5l-6.5,3041.1l-65.4,93.7c-34.8,50.1-104.6,113.3-152.5,137.2l-87.1,45.8l-4563.8,4.4C1875.4,4449.3,439.8,4442.7,394.1,4427.5z M9532.7,4083.3c43.6-43.6,43.6-71.9,43.6-2997.5c0-1993.3-6.5-2967-21.8-2995.4c-24-41.4-95.9-41.4-4553-41.4c-4457.1,0-4529,0-4553,41.4c-15.3,28.3-21.8,1004.3-21.8,3006.2v2962.7l47.9,32.7c43.6,30.5,509.8,34.9,4531.2,34.9C9460.8,4126.9,9489.1,4126.9,9532.7,4083.3z M5402.4-2358.4c6.5-34.9,17.4-104.6,26.1-159c56.7-385.6,320.2-895.3,651.4-1257l124.2-137.2H5001.5H3801.2l135.1,150.3c289.7,324.6,503.2,712.3,599.1,1082.7c28.3,115.5,52.3,233.1,52.3,259.2c0,122-4.4,119.8,413.9,119.8h387.8L5402.4-2358.4z"/><path d="M644.6,1077v-2810.2h4356.9h4356.9V1077v2810.2H5001.5H644.6V1077z M9009.9,1077v-2483.4H5001.5H993.2V1077v2483.4h4008.3h4008.3V1077z"/><path d="M5136.6,2617.2c-39.2-41.4-80.6-252.7-298.5-1555.4c-137.2-830-250.5-1524.9-250.5-1542.3c0-52.3,100.2-141.6,161.2-141.6c30.5,0,78.4,21.8,108.9,50.1c54.5,45.8,67.5,117.6,307.2,1555.4c137.2,830,250.5,1524.9,250.5,1542.3c0,19.6-23.9,58.8-54.5,87.1C5293.4,2682.5,5199.7,2684.7,5136.6,2617.2z"/><path d="M3243.5,1726.2c-241.8-241.8-457.5-472.7-477.1-514.1c-19.6-41.4-41.4-113.3-45.8-159c-21.8-159,58.8-272.3,533.7-742.9c396.5-396.5,437.9-431.3,507.6-431.3c95.8,0,172.1,74.1,172.1,163.4c0,52.3-71.9,135.1-435.7,501c-265.8,265.8-435.7,453.1-435.7,479.3c0,26.1,169.9,213.5,435.7,479.3c383.4,385.6,435.7,446.6,435.7,507.6c0,95.9-65.4,156.9-167.7,156.9C3690.1,2166.2,3659.6,2140.1,3243.5,1726.2z"/><path d="M6112.5,2122.7c-26.2-26.1-43.6-71.9-43.6-113.3c0-61,52.3-122,435.7-507.6c265.8-265.8,435.7-453.1,435.7-479.3c0-26.1-169.9-213.5-435.7-479.3c-374.7-374.7-435.7-446.6-435.7-503.2c0-89.3,78.4-161.2,174.3-161.2c67.5,0,115.4,41.4,496.7,420.4c230.9,228.7,446.6,461.8,479.3,514.1c69.7,117.6,76.3,278.8,19.6,396.5c-19.6,41.4-237.5,274.5-479.3,516.3c-416.1,413.9-446.6,440-522.8,440C6184.4,2166.2,6140.8,2151,6112.5,2122.7z"/></g></g>
</svg>