<?xml version="1.0" encoding="utf-8"?>
<!-- Svg Vector Icons : http://www.onlinewebfonts.com/icon -->
<!DOCTYPE svg PUBLIC "-//W3C//DTD SVG 1.1//EN" "http://www.w3.org/Graphics/SVG/1.1/DTD/svg11.dtd">
<svg version="1.1" xmlns="http://www.w3.org/2000/svg" xmlns:xlink="http://www.w3.org/1999/xlink" x="0px" y="0px" viewBox="0 0 1000 1000" enable-background="new 0 0 1000 1000" xml:space="preserve">
<metadata> Svg Vector Icons : http://www.onlinewebfonts.com/icon </metadata>
<g><g transform="translate(0.000000,511.000000) scale(0.100000,-0.100000)"><path d="M5054,4402.3c-125.4-41-314.8-238.1-353.2-366.1c-48.6-169-38.4-317.4,35.8-465.9c276.5-555.5,1116.1-353.3,1116.1,273.9C5852.7,4253.8,5455.9,4530.3,5054,4402.3z"/><path d="M4314.3,3350.2c-46.1-15.4-130.6-69.1-184.3-115.2c-97.3-79.4-883.2-1215.9-975.3-1407.9c-58.9-122.9-58.9-345.6,2.6-476.1c76.8-169,417.3-471,1264.6-1123.8c122.9-94.7,222.7-179.2,222.7-189.4c0-10.3,38.4-337.9,87-729.6c74.2-624.6,89.6-719.3,138.2-765.4c69.1-71.7,197.1-71.7,266.2-2.5c51.2,51.2,51.2,76.8,48.6,893.4c-7.7,1062.4,33.3,952.3-583.7,1607.6c-174.1,184.3-314.9,343-314.9,353.3c0,28.1,560.6,849.9,583.6,860.1c10.2,2.6,81.9-122.9,158.7-279s161.3-299.5,184.3-322.5c33.3-30.7,140.8-41,514.5-51.2l473.6-15.4l69.2,69.1c56.3,56.3,66.5,84.5,53.7,151c-28.1,143.4-74.2,161.3-491.5,181.8c-207.4,7.7-381.4,20.5-389.1,25.6c-5.1,5.1-99.8,250.9-212.5,545.3c-110.1,291.8-222.7,560.6-248.3,596.4C4841.6,3345.1,4542.1,3434.7,4314.3,3350.2z"/><path d="M6513.2,1786.1v-192h161.2h161.3l71.7-363.5c38.4-202.2,76.8-386.5,81.9-409.6c12.8-40.9-17.9-46.1-296.9-51.2l-312.3-7.7L5719.6-525.4c-361-706.5-663-1292.7-670.7-1297.8c-7.7-7.7-389.1,552.9-849.9,1244.1L3362,675.2l79.4,74.2c41,38.4,76.8,89.6,76.8,115.2c0,92.2-537.6,258.5-770.5,238.1c-169-17.9-240.6-84.5-240.6-227.8c0-92.2,15.4-117.8,94.7-189.4l97.3-81.9l-92.2-317.4l-89.6-317.4l-235.5,10.2C1693,1.9,1181-190.1,758.6-592c-302.1-286.7-504.3-629.7-609.3-1026.5c-74.2-284.2-64-778.2,25.6-1070c184.3-614.4,578.5-1072.6,1151.9-1336.2c596.5-276.5,1323.5-248.3,1894.3,74.2c529.9,302.1,947.1,872.9,1026.5,1407.9l17.9,117.8l463.3,5.1l463.3,7.7L5909-1011.8L6628.4,391h222.7c256,0,222.7,33.3,286.7-307.2c20.4-105,33.3-192,33.3-194.6c-604.1-230.4-983-558-1241.5-1072.6c-158.7-320-197.1-496.6-197.1-934.4c0-345.6,7.7-422.4,58.8-588.8C6090.8-3663.8,6961.2-4273,7941.5-4209c517.1,35.9,939.5,220.2,1320.9,578.6c273.9,263.7,453.1,555.5,568.3,942c58.9,192,69.1,273.9,69.1,558c2.6,353.3-25.6,514.5-145.9,811.5c-104.9,261.1-225.3,435.2-463.3,675.8c-419.8,425-901.1,624.6-1500.1,624.6c-125.4,0-227.8,2.5-227.8,7.7c-2.5,2.6-92.1,448-199.7,990.7l-199.6,985.5l-325.1,7.7l-325.1,7.7V1786.1z M4526.7-2035.7c-94.7-5.1-184.3-2.6-202.2,5.1c-17.9,5.1-38.4,87-48.6,179.2c-69.1,683.5-545.3,1338.8-1187.8,1633.2c-94.7,43.5-176.6,81.9-179.2,87c-7.7,5.1,99.8,409.6,138.2,519.7c7.7,23,355.8-476.1,829.4-1190.4L4695.7-2028L4526.7-2035.7z M2379-428.1c7.7-15.4-66.6-317.4-166.4-673.2c-163.8-576-192-652.8-258.5-704c-215-174.1-197.1-504.3,33.3-645.1c102.4-61.4,320-69.1,394.2-12.8c41,30.7,176.6,35.8,773.1,38.4c396.8,0,721.9-5.1,721.9-10.2c0-7.7-28.2-105-64-217.6c-166.4-522.2-642.5-972.7-1190.3-1118.6c-222.7-58.9-624.6-58.9-844.8-2.6c-604.1,158.7-1085.4,640-1239,1236.4c-53.8,207.4-53.8,632.3,0,839.6c192,747.5,875.5,1282.5,1653.7,1292.7C2286.8-402.5,2371.3-415.3,2379-428.1z M8146.3-443.5c642.6-133.1,1175-642.5,1320.9-1264.6c51.2-212.5,51.2-606.7,2.5-816.6c-140.8-588.8-637.4-1090.5-1241.5-1249.2c-222.7-58.9-624.6-56.3-844.7,2.6c-92.1,25.6-253.4,89.6-360.9,145.9c-855,442.8-1167.3,1497.5-698.9,2344.8c163.8,296.9,494.1,596.4,793.6,727c66.6,28.2,125.4,43.5,133.1,38.4c5.1-7.7,69.1-302.1,138.2-655.3l128-642.5l-53.8-125.4c-66.5-151.1-66.5-212.5-5.1-348.2c64-138.2,186.8-215,350.7-215c414.7,0,547.8,532.5,184.3,729.6l-92.1,48.6l-120.3,604.1c-64,330.2-125.4,627.2-133.1,660.4c-12.8,53.8-5.1,56.3,143.4,56.3C7877.6-402.5,8038.8-420.4,8146.3-443.5z M3057.4-640.6c76.8-46.1,232.9-174.1,345.6-286.7c238.1-235.5,389.1-509.4,458.2-824.3c71.7-322.5,140.8-289.3-611.8-289.3h-652.8l-48.6,97.3c-28.2,53.8-66.6,112.7-87,128c-30.7,25.6-10.2,122.9,143.3,660.4L2783.5-528l66.6-15.4C2885.8-551,2980.6-597.1,3057.4-640.6z"/></g></g>
</svg>