<?xml version="1.0" encoding="utf-8"?>
<!-- Svg Vector Icons : http://www.onlinewebfonts.com/icon -->
<!DOCTYPE svg PUBLIC "-//W3C//DTD SVG 1.1//EN" "http://www.w3.org/Graphics/SVG/1.1/DTD/svg11.dtd">
<svg version="1.1" xmlns="http://www.w3.org/2000/svg" xmlns:xlink="http://www.w3.org/1999/xlink" x="0px" y="0px" viewBox="0 0 1000 1000" enable-background="new 0 0 1000 1000" xml:space="preserve">
<metadata> Svg Vector Icons : http://www.onlinewebfonts.com/icon </metadata>
<g><g><path d="M794,581.7H663.3c-34.7,0-65.3,32.7-65.3,65.3h261.3C859.3,612.3,826.7,581.7,794,581.7z M737.9,157c-170.5,0-213.4,32.7-237.9,57.2c-24.5-24.5-67.4-57.2-237.9-57.2C91.7,157,10,204,10,236.6v598.2c29.6-16.3,121.5-49,218.5-57.2c117.4-9.2,238.9,9.2,238.9,32.7c0,16.3,8.2,31.6,31.6,32.7c0,0,0,0,1,0c0,0,0,0,1,0c23.5-1,31.6-16.3,31.6-32.7c0-23.5,121.5-41.9,238.9-32.7c96,7.1,188.9,40.8,218.5,57.2V236.6C990,204,908.3,157,737.9,157z M467.3,740.9c-30.6-16.3-105.1-28.6-196-28.6c-90.9,0-173.5,12.3-196,27.6c0,0,0-419.6,0-452.2c0-32.7,65.3-60.2,196-60.2c130.7,0,196,27.6,196,60.2C467.3,320.3,467.3,740.9,467.3,740.9z M924.7,739.9c-22.5-15.3-105.1-27.6-196-27.6c-90.9,0-165.4,12.3-196,28.6c0,0,0-420.6,0-453.3c0-32.7,65.3-60.2,196-60.2c130.7,0,196,27.6,196,60.2C924.7,320.3,924.7,739.9,924.7,739.9z M794,451H663.3c-34.7,0-65.3,32.7-65.3,65.3h261.3C859.3,481.6,826.7,451,794,451z M794,320.3H663.3c-34.7,0-65.3,32.7-65.3,65.3h261.3C859.3,351,826.7,320.3,794,320.3z M336.7,451H206c-32.7,0-65.3,30.6-65.3,65.3H402C402,483.7,371.4,451,336.7,451z M336.7,581.7H206c-32.7,0-65.3,30.6-65.3,65.3H402C402,614.3,371.4,581.7,336.7,581.7z M336.7,320.3H206c-32.7,0-65.3,30.6-65.3,65.3H402C402,353,371.4,320.3,336.7,320.3z"/></g></g>
</svg>