<?xml version="1.0" encoding="utf-8"?>
<!-- Svg Vector Icons : http://www.onlinewebfonts.com/icon -->
<!DOCTYPE svg PUBLIC "-//W3C//DTD SVG 1.1//EN" "http://www.w3.org/Graphics/SVG/1.1/DTD/svg11.dtd">
<svg version="1.1" xmlns="http://www.w3.org/2000/svg" xmlns:xlink="http://www.w3.org/1999/xlink" x="0px" y="0px" viewBox="0 0 1000 1000" enable-background="new 0 0 1000 1000" xml:space="preserve">
<metadata> Svg Vector Icons : http://www.onlinewebfonts.com/icon </metadata>
<g><g transform="translate(0.000000,512.000000) scale(0.100000,-0.100000)"><path d="M4770.3,4991.3c-296.7-80.4-530.3-346.5-570.5-649c-34.5-266.1,42.1-497.8,224-681.5c183.8-183.8,415.4-260.4,675.8-224c428.8,57.4,740.9,484.4,666.2,909.4C5683.5,4822.9,5231.6,5115.8,4770.3,4991.3z"/><path d="M2769.7,3052c-195.3-88.1-258.5-306.3-137.8-482.4c23-34.5,68.9-74.7,103.4-91.9c55.5-28.7,74.7-67,233.6-480.5l174.2-449.9l-78.5-72.7c-132.1-122.5-164.6-260.4-93.8-404c57.4-118.7,153.2-174.2,302.5-174.2l122.5-1.9l308.2-800.2l308.2-798.3l-70.8-367.6c-40.2-202.9-72.8-404-70.8-449.9c0-95.7,38.3-180,120.6-268l59.4-61.3h-947.7c-892.1,0-949.6-1.9-1005.1-36.4c-118.7-72.7-157-250.8-78.5-367.6c91.9-137.8,34.5-132.1,1411-132.1h1236.7l80.4-214.4c44-118.7,80.4-222.1,80.4-229.7c0-7.6-57.4-84.2-126.4-170.4c-68.9-86.1-134-174.2-145.5-199.1c-15.3-32.5,0-86.1,74.7-269.9l91.9-227.8l95.7-24.9c135.9-36.4,371.4-17.2,536.1,40.2c145.5,51.7,449.9,181.9,472.9,202.9c9.6,7.6-44,158.9-114.9,336.9L5582-2819.6l-82.3,24.9c-44,11.5-151.2,30.6-237.4,38.3l-155.1,15.3l-63.2,160.8c-34.4,90-63.2,168.5-63.2,178c0,7.6,635.6,15.3,1412.9,15.3c1305.7,0,1416.7,1.9,1476,34.5c86.2,42.1,135.9,113,149.3,208.7c13.4,97.6-36.4,208.7-116.8,256.5c-55.5,34.5-114.9,36.4-1062.5,36.4H5834.7l61.3,63.2c72.7,74.7,118.7,180,118.7,273.8c0,38.3-101.5,574.3-224,1192.7L5564.8,800.6l-9.6,899.8c-9.6,804.1-15.3,909.4-45.9,989.8c-47.9,126.3-181.9,269.9-314,335l-109.1,53.6l-1120,5.7C2909.4,3088.4,2842.4,3086.5,2769.7,3052z M4318.5,2420.2c-74.7-67-930.4-695-938.1-687.3c-7.7,9.6-187.6,463.3-248.9,633.7l-24.9,70.8h614.5C4071.5,2437.5,4329.9,2429.8,4318.5,2420.2z M4261,551.7L4190.2,188l266.1-685.4c145.5-379.1,268-677.7,271.8-668.1c3.8,11.5,51.7,250.8,107.2,532.2c68.9,344.6,107.2,499.7,114.9,467.1c5.7-26.8,76.6-369.5,155.1-760c78.5-392.5,151.3-733.2,164.6-756.2c11.5-24.9,47.9-72.7,80.4-105.3l59.4-63.2H5090c-285.3,0-319.7,3.8-336.9,34.5c-32.5,63.2-1112.3,2864-1112.3,2888.9c0,13.4,153.2,139.8,340.8,279.5l338.9,256.5l5.7-346.5C4331.9,928.9,4329.9,902.1,4261,551.7z"/><path d="M1075.4-3057c0-199.1,5.7-269.9,24.9-275.7c11.5-3.8,80.4-19.1,149.3-36.4c68.9-15.3,248.9-84.2,402-153.2c434.6-191.4,511.1-214.4,735.1-212.5c222.1,0,273.8,15.3,748.6,220.2c386.7,166.6,515,195.3,687.3,160.8c68.9-15.3,214.4-65.1,325.5-111c111-47.9,201-84.2,201-80.4c0,1.9-21.1,63.2-47.9,132.1c-61.3,162.7-59.4,210.6,5.7,342.7l55.5,107.2l-157,57.4c-256.5,91.9-317.8,105.3-516.9,103.4c-227.8,0-354.2-36.4-798.3-227.8c-160.8-68.9-344.6-139.8-409.7-157c-111-28.7-120.6-28.7-241.2,9.6c-67,23-239.3,91.9-381,155.1c-296.7,132.1-515,204.9-672,224l-111,11.5V-3057z"/><path d="M6167.8-2802.4c-95.7-15.3-248.9-65.1-248.9-78.5c0-9.6,42.1-118.7,91.9-245c90-222.1,93.8-227.8,149.3-224c271.9,19.1,335,3.8,763.9-185.7c409.7-181.9,469-199.1,689.2-199.1c224-1.9,300.6,21.1,735.2,212.5c153.2,68.9,333.1,137.8,402,153.2c68.9,17.2,137.8,32.5,151.2,36.4c17.2,5.8,23,76.6,23,275.7v269.9l-109.1-11.5c-158.9-19.1-377.1-91.9-673.9-224c-392.5-174.2-480.5-199.1-601.1-170.4c-55.5,11.5-199.1,65.1-319.7,118.7C6650.3-2823.4,6411-2762.2,6167.8-2802.4z"/><path d="M1075.4-4088.9v-264.2l128.3-32.6c68.9-17.2,287.2-99.5,482.4-183.8c369.5-157,541.8-210.6,693-210.6c139.8,0,367.6,67,696.9,208.7c168.5,72.7,354.2,147.4,411.6,166.5c210.6,68.9,369.5,40.2,794.5-149.3c639.4-285.2,806-289.1,1378.4-34.5c396.3,176.1,515,214.4,660.5,214.4c143.6,0,216.3-23,624.1-202.9c310.1-135.9,534.2-202.9,675.8-202.9c151.2,0,323.5,53.6,693,210.6c195.3,84.2,413.5,166.6,482.4,183.8l128.3,32.6v264.2v266.1h-55.5c-116.8,0-426.9-97.6-719.8-225.9c-168.5-74.7-359.9-149.3-425-168.5c-114.9-32.5-122.5-30.6-241.2,7.7c-67,21.1-237.4,90-379.1,153.2c-522.7,231.7-752.4,271.8-1070.2,189.5c-99.6-26.8-319.7-107.2-488.2-181.9c-168.5-74.7-356.1-149.3-417.3-166.6c-135.9-38.3-199.1-26.8-472.9,90c-448,189.5-555.2,231.6-698.8,266.1c-304.4,72.8-509.2,34.5-1043.4-193.3c-469-199.1-497.8-206.8-666.2-155.1c-72.8,21-229.7,84.2-350.4,137.8c-365.7,162.7-627.9,247-771.5,247h-49.8V-4088.9z"/></g></g>
</svg>