<?xml version="1.0" encoding="utf-8"?>
<!-- Svg Vector Icons : http://www.onlinewebfonts.com/icon -->
<!DOCTYPE svg PUBLIC "-//W3C//DTD SVG 1.1//EN" "http://www.w3.org/Graphics/SVG/1.1/DTD/svg11.dtd">
<svg version="1.1" xmlns="http://www.w3.org/2000/svg" xmlns:xlink="http://www.w3.org/1999/xlink" x="0px" y="0px" viewBox="0 0 1000 1000" enable-background="new 0 0 1000 1000" xml:space="preserve">
<metadata> Svg Vector Icons : http://www.onlinewebfonts.com/icon </metadata>
<g><g transform="translate(0.000000,511.000000) scale(0.100000,-0.100000)"><path d="M7653.3,4384.2c-21-3.8-704.6-158.9-1520.2-344.6c-815.6-183.8-1520.2-352.3-1566.2-373.4c-111-51.7-224-164.6-285.3-287.2c-67-128.3-84.2-350.4-40.2-480.6c23-67,538-1016.7,771.6-1422.6l45.9-78.5l-2018-1137.3l-2018-1137.3l126.4-67c170.4-90,270-160.8,453.8-325.5c308.3-277.6,446.1-337,741-321.7c204.9,9.6,315.9,61.3,522.7,239.3c371.4,321.7,530.4,425.1,794.6,507.4c124.5,38.3,183.8,44.1,430.8,44.1c325.5,0,446.1-24.9,670.1-137.9c155.1-76.6,254.6-149.3,515-373.4c103.4-90,237.4-189.5,296.8-218.3c99.6-51.7,122.5-55.5,327.4-55.5c197.2,0,231.7,5.7,325.5,49.8c57.4,26.8,145.5,84.2,193.4,124.5c49.8,40.2,172.3,145.5,273.8,229.8c199.1,168.5,423.1,294.9,614.6,344.6c63.2,15.3,216.3,36.4,340.8,42.1l224,13.4L6856.8,928.3c-559.1,940.1-1010.9,1715.5-1005.2,1721.3c5.7,5.7,480.6,116.8,1055,247c677.8,155.1,1077.9,254.6,1135.4,283.4c49.8,24.9,130.2,88.1,178.1,139.8c218.3,233.6,227.8,572.5,23,842.4C8126.2,4315.3,7831.3,4426.4,7653.3,4384.2z"/><path d="M8254.5,2442.8c-363.8-53.6-687.4-283.4-855.8-606.9c-109.1-206.8-143.6-367.6-132.1-597.4c47.9-968.8,1192.8-1451.3,1922.3-813.7c124.5,109.1,275.7,333.1,331.2,490.2c65.1,189.5,74.7,478.7,19.2,681.6c-114.9,428.9-474.8,762-909.5,838.6C8459.3,2465.8,8411.5,2465.8,8254.5,2442.8z"/><path d="M320.2-1227.6c-189.5-91.9-270-304.4-183.8-492.1c65.1-141.7,195.3-220.2,363.8-220.2c124.5,0,300.6-55.5,405.9-128.3c46-32.5,149.3-116.8,227.8-187.6c411.7-365.7,700.8-488.2,1152.6-488.2c449.9,0,741,126.4,1154.5,495.9c281.5,254.6,438.5,319.8,714.2,302.5c204.9-11.5,338.9-76.6,549.5-264.2c461.4-407.8,681.6-511.2,1122-528.5c509.3-21,773.5,82.4,1242.6,494c122.5,107.2,250.8,199.1,325.5,235.5c114.9,55.5,139.8,59.4,325.5,59.4c189.6,0,210.6-3.9,325.5-61.3c70.8-34.4,212.5-137.8,325.5-237.4c340.8-294.8,538-407.8,819.5-467.2c162.7-36.4,407.8-36.4,488.2-1.9c78.5,32.5,174.2,141.7,204.9,231.7c32.6,95.7,11.5,231.7-47.9,315.9c-72.8,105.3-164.7,147.4-371.5,170.4c-222.1,24.9-325.5,72.8-509.3,233.6c-476.7,419.3-714.2,538-1131.5,566.7c-440.4,28.7-796.5-99.6-1169.9-421.2c-396.3-342.7-484.4-384.8-786.9-373.4c-229.8,7.7-331.2,51.7-549.5,239.3c-379.1,329.3-539.9,430.8-804.2,507.4c-128.3,36.4-197.2,44.1-421.2,42.1c-484.4-1.9-716.1-103.4-1187.1-522.7c-84.2-74.7-204.9-162.7-268-197.2c-111-61.3-120.6-63.2-344.6-63.2c-206.8,0-239.3,5.7-337,49.8c-57.4,26.8-168.5,105.3-245.1,172.3c-279.5,243.1-415.5,344.6-566.7,419.3c-197.2,95.7-338.9,132.1-564.8,145.5C425.5-1193.1,385.3-1197,320.2-1227.6z"/><path d="M368-2631c-151.3-46-268-199.1-268-354.2c0-99.6,68.9-229.8,157-300.6c61.3-47.9,93.8-59.3,248.9-74.7c227.8-21.1,358-82.3,559.1-256.5c455.7-398.3,645.2-495.9,1051.1-545.7c283.4-34.5,618.4,24.9,869.3,151.2c99.6,51.7,300.6,203,476.7,360c183.8,164.7,325.5,247,476.7,275.7c287.2,53.6,511.2-26.8,804.2-287.2c356.1-317.8,620.4-453.8,976.5-497.8c367.6-46,727.6,36.4,1028.2,237.4c57.4,36.3,197.2,149.3,312.1,250.8c237.4,206.8,350.4,270,534.2,300.6c243.2,40.2,457.6-24.9,668.2-202.9c63.2-53.6,183.8-155.1,268.1-225.9c281.5-237.4,585.9-358,922.9-365.7c147.4-3.8,183.8,1.9,252.7,40.2c174.2,91.9,245.1,310.2,155.1,480.6c-72.8,139.7-158.9,195.3-335.1,212.5c-275.7,28.7-365.7,68.9-587.8,262.3c-352.3,306.3-492.1,396.3-721.8,474.8c-354.2,120.6-786.9,101.5-1120.1-47.9c-157-70.9-304.4-172.3-534.2-373.4c-233.6-202.9-340.8-268-499.7-296.8c-285.3-53.6-511.2,26.8-802.2,287.2c-93.8,86.2-245.1,202.9-331.2,262.3c-350.4,235.5-802.2,306.3-1240.7,195.3c-252.7-63.2-465.3-193.4-802.2-494c-84.2-76.6-197.2-158.9-250.8-185.7c-212.5-103.4-495.9-103.4-704.6,1.9c-53.6,26.8-170.4,114.9-260.4,193.4c-335.1,296.8-538,421.2-792.7,486.3C703.1-2623.4,454.2-2606.2,368-2631z"/></g></g>
</svg>