<?xml version="1.0" encoding="utf-8"?>
<!-- Svg Vector Icons : http://www.onlinewebfonts.com/icon -->
<!DOCTYPE svg PUBLIC "-//W3C//DTD SVG 1.1//EN" "http://www.w3.org/Graphics/SVG/1.1/DTD/svg11.dtd">
<svg version="1.1" xmlns="http://www.w3.org/2000/svg" xmlns:xlink="http://www.w3.org/1999/xlink" x="0px" y="0px" viewBox="0 0 1000 1000" enable-background="new 0 0 1000 1000" xml:space="preserve">
<metadata> Svg Vector Icons : http://www.onlinewebfonts.com/icon </metadata>
<g><g transform="translate(0.000000,511.000000) scale(0.100000,-0.100000)"><path d="M1536,3202.2c-221.9-72.6-412.6-246.7-522.5-476.9c-45.6-97.5-53.9-141-53.9-311s8.3-213.6,56-317.2c31.1-66.4,107.8-174.2,172.1-240.5c263.3-275.8,622-342.1,960-176.3c145.1,70.5,317.3,244.7,385.7,387.7c66.4,143.1,70.5,228.1,8.3,271.6c-66.3,45.6-91.2,41.5-194.9-33.2c-178.3-126.5-429.2-93.3-559.8,76.7c-45.6,62.2-60.1,103.7-66.3,207.3c-10.4,170,41.5,279.9,178.3,362.9c134.8,85,149.3,99.5,149.3,153.4c0,82.9-68.4,122.3-232.2,130.6C1704,3241.6,1631.4,3233.3,1536,3202.2z M1515.3,2866.3c-27-49.8-37.3-114-37.3-244.7c0-157.6,6.2-188.7,62.2-288.2c107.8-192.8,296.5-321.4,518.4-350.4l120.3-14.5l-112-62.2c-99.5-56-130.6-62.2-288.2-62.2s-188.7,6.2-288.2,62.2c-116.1,64.3-219.8,182.5-265.4,306.9c-58.1,157.6-20.7,416.8,78.8,557.8c43.5,60.1,223.9,190.8,242.6,174.2C1550.6,2940.9,1536,2905.7,1515.3,2866.3z"/><path d="M6765.4,2712.8c-76.7-37.3-1391.3-1343.6-1432.8-1422.4c-37.3-72.6-37.3-149.3,2.1-223.9c41.5-80.9,130.6-124.4,253-124.4h97.5l-209.4-197c-165.9-155.5-215.6-213.6-226-269.6c-18.7-101.6,43.5-217.7,143.1-267.5c143.1-68.4,174.2-49.8,649,381.5c238.4,215.6,456.2,423,481,460.3c39.4,53.9,47.7,87.1,39.4,157.6c-16.6,147.2-130.6,232.2-309,232.2H6164l352.5,352.5l352.5,352.5l348.3-346.3c190.8-192.8,335.9-350.4,321.4-352.5c-14.5-2.1-70.5-10.4-124.4-16.6c-167.9-22.8-275.8-174.2-221.9-317.2c10.4-31.1,259.2-294.4,551.6-586.8L8274.8-7.5l-259.2-6.2c-292.4-8.3-350.4-33.2-404.3-157.6c-64.3-157.6-66.4-155.5,713.3-926.8l715.4-707.1l-273.7-10.4l-273.7-10.4l-70.5-76.7c-80.9-89.2-93.3-188.7-35.3-288.2c68.4-116.1,112-122.3,746.4-122.3c541.2,0,580.6,2.1,644.8,41.5c82.9,51.8,136.9,165.9,118.2,257.1c-10.4,49.8-182.5,232.2-731.9,785.8l-719.5,719.5h255c186.6,0,271.6,8.3,315.2,31.1c105.7,53.9,153.4,203.2,101.6,306.9c-12.5,24.9-261.3,286.1-553.6,580.6l-532.9,532.9h132.7c120.3,0,134.8,4.2,201.1,70.5c58.1,58.1,70.5,85,70.5,161.7c-2.1,47.7-12.4,107.8-27,132.7c-47.7,78.8-1395.4,1395.4-1453.5,1418.3C6877.3,2754.3,6837.9,2752.2,6765.4,2712.8z"/><path d="M2450.4,1070.7c-35.2-22.8-91.2-87.1-122.3-141c-33.2-56-532.9-870.8-1113.5-1810.1C634.1-1819.8,144.7-2616,126.1-2651.2c-70.5-136.8,8.3-304.8,159.7-346.3c80.9-22.8,6593.7-29,7568.2-8.3c564,12.5,584.7,14.5,655.2,122.3c56,87.1,41.5,184.6-51.8,338c-47.7,76.7-381.5,615.8-744.4,1196.4c-566,908.2-669.7,1061.6-729.9,1092.7c-39.4,18.7-408.5,105.7-819,194.9c-410.5,87.1-806.6,174.2-881.2,194.9c-74.6,18.7-694.6,244.7-1378.9,497.6c-684.2,255-1277.3,466.5-1316.7,470.7C2539.6,1108,2491.9,1095.5,2450.4,1070.7z M4173.5,2.8l933.1-342.1l806.6-178.3c443.7-97.5,808.7-180.4,810.7-182.5c45.6-64.3,1090.6-1758.3,1098.9-1783.2c14.5-33.2-70.5-37.3-1403.7-41.5c-922.7-4.1-1424.5,0-1441.1,14.5c-24.9,20.7-1789.4,2846.9-1789.4,2865.6c0,6.2,12.4,6.2,26.9,0C3228,351.2,3661.4,191.5,4173.5,2.8z M3541.1-1162.5c447.9-717.4,816.9-1316.7,823.2-1331.2c8.3-22.8-147.2-27-821.1-27h-831.5v1341.6c0,736.1,4.2,1335.3,8.3,1331.2C2724.2,148,3093.2-443,3541.1-1162.5z M2303.2-119.5c-20.7-124.4-358.7-2367.9-358.7-2384.5c0-8.3-257.1-16.6-572.3-16.6c-460.3,0-570.2,6.2-561.9,27c6.2,14.5,329.7,543.3,719.5,1175.7C2338.5-3.4,2294.9-73.9,2305.3-73.9C2309.5-73.9,2309.5-94.6,2303.2-119.5z M2462.9-1660.1v-860.5H2326h-136.9l10.4,58.1c6.2,31.1,64.3,416.8,130.6,860.5c66.3,441.7,124.4,802.4,126.5,802.4C2460.8-799.6,2462.9-1187.4,2462.9-1660.1z"/></g></g>
</svg>